<svg xmlns="http://www.w3.org/2000/svg" xmlns:xlink="http://www.w3.org/1999/xlink" width="1500" zoomAndPan="magnify" viewBox="0 0 1125 1124.99995" height="1500" preserveAspectRatio="xMidYMid meet" version="1.0"><defs><g/></defs><g fill="#161726" fill-opacity="1"><g transform="translate(31.486571, 740.655212)"><g><path d="M 617.832031 -459.445312 C 617.832031 -495.714844 611.785156 -521.105469 598.484375 -533.195312 C 586.394531 -542.867188 574.304688 -548.914062 564.632812 -548.914062 C 562.214844 -548.914062 561.003906 -547.707031 559.796875 -547.707031 C 556.167969 -547.707031 552.542969 -546.496094 548.914062 -544.078125 C 544.078125 -541.660156 540.449219 -539.242188 535.613281 -536.824219 C 528.359375 -530.777344 521.105469 -523.523438 516.269531 -515.058594 C 509.015625 -505.386719 505.386719 -496.925781 502.96875 -489.671875 C 498.132812 -473.953125 498.132812 -450.980469 504.179688 -419.542969 C 509.015625 -388.109375 516.269531 -365.136719 524.734375 -348.210938 C 528.359375 -340.957031 523.523438 -326.445312 511.433594 -307.101562 C 499.34375 -287.757812 483.625 -267.203125 465.488281 -246.648438 C 452.1875 -233.347656 438.890625 -221.257812 426.800781 -209.167969 C 412.289062 -197.078125 400.199219 -188.613281 389.316406 -182.570312 C 372.390625 -172.894531 357.882812 -169.269531 347 -171.6875 C 334.910156 -172.894531 326.445312 -177.730469 319.191406 -186.195312 C 305.894531 -201.914062 297.429688 -226.09375 295.011719 -258.738281 C 292.59375 -290.175781 290.175781 -320.402344 288.964844 -347 C 285.339844 -421.960938 280.503906 -467.90625 274.457031 -487.253906 C 267.203125 -506.597656 252.695312 -515.058594 232.140625 -513.851562 C 217.632812 -512.640625 203.121094 -501.761719 186.195312 -482.414062 C 168.058594 -461.863281 145.085938 -426.800781 116.070312 -378.4375 C 87.050781 -330.074219 68.917969 -307.101562 60.453125 -308.3125 C 50.78125 -308.3125 47.152344 -333.703125 47.152344 -383.273438 C 47.152344 -414.707031 47.152344 -435.261719 45.945312 -444.933594 C 43.527344 -454.605469 39.898438 -457.027344 33.855469 -454.605469 C 19.34375 -448.5625 6.046875 -428.007812 -6.046875 -392.945312 C -19.34375 -356.671875 -26.597656 -320.402344 -26.597656 -285.339844 L -26.597656 -279.292969 C -26.597656 -229.722656 -18.136719 -199.496094 -1.210938 -189.824219 C 15.71875 -178.941406 30.226562 -174.105469 41.109375 -175.3125 C 55.617188 -176.523438 73.753906 -186.195312 96.726562 -204.332031 C 118.488281 -221.257812 139.042969 -243.023438 157.179688 -268.410156 C 165.640625 -280.503906 174.105469 -291.382812 182.570312 -299.847656 C 189.824219 -307.101562 195.867188 -310.730469 198.285156 -310.730469 C 200.703125 -308.3125 204.332031 -302.265625 206.75 -291.382812 C 209.167969 -279.292969 210.375 -265.992188 211.585938 -251.484375 C 214.003906 -217.632812 221.257812 -188.613281 233.347656 -164.433594 C 244.230469 -140.25 259.949219 -120.90625 281.710938 -107.605469 C 298.636719 -94.308594 317.984375 -88.261719 339.746094 -88.261719 C 360.300781 -88.261719 383.273438 -94.308594 407.453125 -108.816406 C 453.398438 -135.414062 502.96875 -187.40625 554.960938 -263.574219 C 563.421875 -275.667969 569.46875 -284.128906 574.304688 -290.175781 C 596.066406 -280.503906 611.785156 -273.25 623.875 -268.410156 C 644.429688 -258.738281 672.238281 -252.695312 708.511719 -251.484375 C 742.363281 -249.066406 779.84375 -251.484375 818.535156 -256.320312 C 870.523438 -262.367188 921.304688 -273.25 970.878906 -290.175781 C 1019.238281 -305.894531 1055.511719 -325.238281 1077.273438 -347 C 1084.527344 -355.464844 1089.363281 -361.507812 1089.363281 -363.929688 C 1089.363281 -363.929688 1088.15625 -365.136719 1088.15625 -365.136719 C 1085.738281 -365.136719 1068.8125 -363.929688 1039.792969 -359.089844 C 1018.03125 -355.464844 998.683594 -351.835938 981.757812 -349.417969 C 964.832031 -345.792969 950.324219 -343.375 938.230469 -340.957031 C 909.214844 -336.121094 886.242188 -331.28125 871.734375 -328.863281 C 856.015625 -325.238281 836.671875 -322.820312 814.90625 -321.609375 C 752.035156 -314.355469 701.257812 -316.773438 661.355469 -328.863281 C 620.25 -339.746094 603.320312 -356.671875 609.367188 -380.855469 C 610.578125 -386.898438 611.785156 -397.78125 614.203125 -413.5 C 615.414062 -428.007812 616.621094 -443.726562 617.832031 -459.445312 Z M 550.125 -464.28125 C 550.125 -471.535156 552.542969 -476.371094 554.960938 -479.996094 C 556.167969 -479.996094 557.378906 -481.207031 559.796875 -481.207031 C 562.214844 -481.207031 564.632812 -481.207031 567.050781 -478.789062 C 567.050781 -475.160156 568.257812 -471.535156 568.257812 -467.90625 L 568.257812 -452.1875 C 567.050781 -442.515625 565.839844 -435.261719 563.421875 -430.425781 C 561.003906 -424.378906 559.796875 -421.960938 558.585938 -421.960938 C 557.378906 -421.960938 557.378906 -421.960938 557.378906 -423.171875 C 554.960938 -423.171875 552.542969 -428.007812 551.332031 -437.679688 C 548.914062 -444.933594 548.914062 -450.980469 550.125 -457.027344 Z M 550.125 -464.28125 "/></g></g></g><g fill="#161726" fill-opacity="1"><g transform="translate(475.465496, 891.693327)"><g><path d="M 114.554688 -167.382812 C 116.222656 -184.066406 115.113281 -198.527344 111.773438 -210.757812 C 107.324219 -222.4375 101.210938 -228.554688 92.3125 -228.554688 C 85.082031 -228.554688 72.847656 -221.882812 56.164062 -208.535156 C 38.925781 -194.632812 22.242188 -181.84375 6.671875 -169.609375 C 1.667969 -166.273438 -1.667969 -162.933594 -3.894531 -159.597656 C -6.117188 -156.261719 -7.785156 -152.925781 -7.785156 -150.144531 C -8.339844 -143.472656 -4.449219 -139.023438 3.894531 -136.800781 C 12.234375 -134.574219 22.242188 -137.355469 33.367188 -145.140625 C 55.054688 -160.15625 70.066406 -174.613281 78.964844 -187.960938 C 87.308594 -201.304688 91.753906 -204.085938 91.753906 -196.855469 C 91.753906 -195.1875 90.085938 -190.183594 87.308594 -182.398438 C 83.96875 -174.058594 80.632812 -165.160156 76.183594 -155.148438 C 63.949219 -128.457031 55.054688 -108.996094 49.492188 -95.648438 L 9.453125 -75.628906 C -17.238281 -62.28125 -43.375 -45.601562 -68.957031 -26.136719 C -95.09375 -6.117188 -116.222656 12.234375 -131.792969 29.472656 C -147.921875 46.710938 -159.042969 60.613281 -164.605469 71.734375 C -170.722656 83.414062 -174.058594 95.648438 -174.058594 107.882812 C -174.058594 116.78125 -171.832031 124.007812 -167.941406 129.570312 C -164.046875 135.128906 -159.042969 139.578125 -153.480469 141.804688 C -146.808594 145.140625 -139.578125 146.808594 -131.238281 146.808594 C -126.789062 146.808594 -122.339844 146.253906 -117.335938 145.140625 C -103.988281 142.917969 -92.867188 139.023438 -84.527344 133.460938 C -74.515625 127.902344 -61.726562 116.78125 -45.042969 100.652344 C -29.472656 85.082031 -13.347656 67.289062 2.78125 48.378906 C 11.121094 38.371094 18.90625 28.359375 26.691406 17.796875 C 34.476562 7.785156 41.152344 -2.222656 46.710938 -11.679688 C 54.496094 -23.910156 61.726562 -36.144531 68.957031 -47.269531 C 75.628906 -58.390625 80.078125 -65.617188 82.300781 -68.398438 C 83.414062 -70.066406 90.085938 -74.515625 102.320312 -81.191406 C 114.554688 -87.863281 127.902344 -94.535156 142.359375 -102.320312 C 151.8125 -106.769531 161.265625 -111.21875 170.164062 -115.667969 C 179.0625 -119.558594 186.292969 -122.898438 191.851562 -125.121094 C 205.753906 -130.683594 217.433594 -135.6875 227.441406 -139.578125 C 236.894531 -143.472656 245.238281 -146.808594 251.910156 -150.144531 C 264.144531 -155.148438 271.929688 -159.042969 275.824219 -161.265625 C 279.160156 -162.933594 280.828125 -164.605469 280.828125 -166.273438 C 280.828125 -167.382812 275.265625 -167.382812 265.257812 -166.273438 C 254.691406 -165.160156 242.457031 -162.933594 229.109375 -160.15625 C 221.324219 -158.488281 214.097656 -156.820312 206.867188 -155.148438 C 199.082031 -152.925781 192.410156 -150.703125 185.734375 -148.476562 C 165.714844 -141.804688 146.253906 -134.574219 127.34375 -127.34375 C 107.882812 -119.558594 97.316406 -115.667969 96.203125 -115.667969 C 95.09375 -115.667969 97.316406 -122.339844 103.433594 -136.242188 C 108.996094 -150.144531 112.886719 -160.710938 114.554688 -167.382812 Z M -119.003906 69.511719 L -109.550781 60.058594 C -105.101562 55.609375 -98.984375 49.492188 -91.753906 42.820312 C -78.410156 30.585938 -62.28125 17.238281 -43.375 2.222656 C -24.46875 -12.234375 -6.117188 -24.46875 12.789062 -34.476562 L 12.789062 -33.921875 C 12.789062 -31.140625 7.230469 -23.355469 -3.335938 -10.566406 C -15.570312 4.449219 -28.917969 20.019531 -43.375 36.144531 C -53.386719 47.269531 -62.839844 57.277344 -71.734375 66.175781 C -80.632812 75.628906 -87.863281 82.300781 -93.421875 86.75 C -100.652344 92.3125 -107.324219 97.316406 -112.886719 101.765625 C -118.449219 106.214844 -121.785156 107.882812 -122.898438 107.882812 C -128.457031 107.882812 -132.351562 105.101562 -133.460938 99.539062 L -133.460938 97.316406 C -133.460938 91.753906 -129.015625 82.300781 -119.003906 69.511719 Z M 101.210938 -263.589844 C 102.878906 -254.691406 106.214844 -250.796875 111.21875 -250.796875 C 111.21875 -250.796875 111.773438 -250.796875 112.332031 -251.355469 C 116.78125 -251.355469 123.453125 -256.914062 131.238281 -266.925781 C 139.578125 -278.046875 144.027344 -288.054688 144.027344 -298.066406 C 144.027344 -300.847656 143.472656 -303.628906 142.917969 -306.40625 C 140.691406 -314.75 135.6875 -319.199219 127.902344 -319.199219 C 125.121094 -319.199219 121.785156 -318.640625 118.449219 -317.53125 C 112.886719 -315.304688 107.882812 -308.074219 103.988281 -295.839844 C 101.210938 -287.5 100.097656 -280.269531 100.097656 -273.597656 C 100.097656 -269.707031 100.097656 -266.367188 101.210938 -263.589844 Z M 101.210938 -263.589844 "/></g></g><g transform="translate(737.385574, 891.693327)"><g><path d="M 113.441406 -177.949219 C 111.21875 -184.625 103.988281 -190.738281 92.3125 -196.300781 C 80.078125 -201.304688 67.289062 -204.085938 53.386719 -204.640625 C 51.714844 -204.640625 50.046875 -205.199219 48.9375 -205.199219 C 42.820312 -205.199219 37.257812 -204.640625 31.699219 -203.53125 C 23.910156 -202.417969 17.796875 -200.195312 12.234375 -196.855469 C 3.894531 -191.851562 0 -185.179688 0 -176.835938 C 0 -171.832031 1.113281 -166.828125 3.335938 -161.265625 C 9.453125 -144.585938 24.46875 -128.457031 48.378906 -112.886719 C 53.941406 -108.4375 60.613281 -104.546875 67.289062 -100.652344 C 73.40625 -96.203125 77.851562 -92.867188 81.191406 -91.199219 C 85.636719 -87.863281 89.53125 -85.082031 91.753906 -83.414062 C 87.308594 -75.628906 83.414062 -69.511719 81.191406 -65.617188 C 74.515625 -53.941406 70.625 -42.820312 70.066406 -32.253906 C 69.511719 -21.132812 72.292969 -12.234375 78.964844 -5.5625 C 85.636719 2.78125 95.09375 7.230469 108.4375 7.230469 L 110.105469 7.230469 C 122.339844 7.230469 132.351562 3.894531 141.246094 -3.894531 C 145.695312 -8.339844 149.03125 -12.789062 151.257812 -17.796875 C 152.925781 -22.242188 154.039062 -28.917969 154.59375 -37.8125 C 154.59375 -42.261719 154.039062 -48.378906 151.8125 -56.164062 C 149.589844 -63.394531 146.253906 -68.957031 142.359375 -72.847656 C 147.921875 -77.296875 161.265625 -83.96875 182.398438 -92.3125 C 202.417969 -100.097656 225.773438 -108.4375 251.910156 -116.78125 C 265.257812 -121.226562 279.714844 -125.121094 294.171875 -129.015625 C 308.632812 -132.90625 322.535156 -136.242188 336.4375 -139.578125 C 358.125 -144.027344 374.808594 -147.921875 385.929688 -152.371094 C 393.714844 -154.59375 397.050781 -157.375 397.050781 -159.597656 C 397.050781 -160.15625 396.496094 -160.710938 395.382812 -161.824219 C 360.347656 -171.832031 323.089844 -172.945312 283.050781 -165.160156 C 243.011719 -157.375 208.535156 -147.921875 179.0625 -136.800781 C 162.933594 -130.125 149.03125 -124.007812 137.910156 -118.449219 C 126.789062 -112.886719 118.449219 -107.882812 114 -104.546875 C 111.773438 -105.65625 106.214844 -110.105469 96.761719 -116.78125 C 86.75 -123.453125 77.296875 -130.125 68.398438 -137.355469 C 61.726562 -141.804688 56.164062 -146.253906 51.714844 -150.703125 C 46.15625 -154.039062 43.375 -156.820312 42.261719 -159.042969 C 38.925781 -162.378906 38.371094 -166.273438 40.59375 -169.609375 C 41.707031 -172.945312 46.710938 -174.613281 54.496094 -175.726562 C 57.832031 -175.726562 65.0625 -175.726562 75.628906 -174.613281 C 85.636719 -172.945312 92.867188 -172.390625 97.871094 -172.390625 C 103.433594 -171.832031 107.882812 -171.832031 110.664062 -172.945312 C 112.886719 -174.058594 114 -175.726562 113.441406 -177.949219 Z M 111.21875 -23.910156 L 110.664062 -23.910156 C 106.769531 -23.910156 104.546875 -26.136719 104.546875 -31.140625 C 103.988281 -31.140625 103.988281 -31.699219 103.988281 -32.253906 C 103.988281 -37.257812 107.882812 -45.042969 115.667969 -55.054688 C 121.785156 -49.492188 125.121094 -43.929688 125.121094 -39.484375 C 125.121094 -37.257812 124.566406 -35.589844 123.453125 -33.921875 C 119.558594 -27.25 115.667969 -23.910156 111.21875 -23.910156 Z M 111.21875 -23.910156 "/></g></g></g></svg>