<svg xmlns="http://www.w3.org/2000/svg" xmlns:xlink="http://www.w3.org/1999/xlink" width="64" zoomAndPan="magnify" viewBox="0 0 48 48" height="64" preserveAspectRatio="xMidYMid meet" version="1.0"><defs><clipPath id="f008d762d4"><path d="M 2.957031 0 L 44.835938 0 L 44.835938 47.019531 L 2.957031 47.019531 Z M 2.957031 0 " clip-rule="nonzero"/></clipPath></defs><g clip-path="url(#f008d762d4)"><path fill="#0277bd" d="M 44.835938 0 L 2.960938 0 L 6.652344 42.070312 L 23.898438 47.019531 L 41.140625 42.070312 Z M 44.835938 0 " fill-opacity="1" fill-rule="nonzero"/></g><path fill="#039be5" d="M 23.898438 3.710938 L 23.898438 43.183594 L 37.691406 39.226562 L 40.769531 3.710938 Z M 23.898438 3.710938 " fill-opacity="1" fill-rule="nonzero"/><path fill="#ffffff" d="M 35.105469 9.898438 L 23.898438 9.898438 L 23.898438 14.847656 L 29.933594 14.847656 L 29.5625 19.796875 L 23.898438 19.796875 L 23.898438 24.746094 L 29.316406 24.746094 L 28.945312 30.316406 L 23.898438 32.046875 L 23.898438 37.246094 L 33.628906 34.027344 L 34.488281 19.796875 Z M 35.105469 9.898438 " fill-opacity="1" fill-rule="nonzero"/><path fill="#eeeeee" d="M 23.898438 9.898438 L 23.898438 14.847656 L 12.9375 14.847656 L 12.566406 9.898438 Z M 18.230469 19.796875 L 18.476562 24.746094 L 23.898438 24.746094 L 23.898438 19.796875 Z M 18.722656 27.222656 L 13.796875 27.222656 L 14.167969 34.027344 L 23.898438 37.246094 L 23.898438 32.046875 L 18.847656 30.316406 Z M 18.722656 27.222656 " fill-opacity="1" fill-rule="nonzero"/></svg>