<svg xmlns="http://www.w3.org/2000/svg" xmlns:xlink="http://www.w3.org/1999/xlink" width="64" zoomAndPan="magnify" viewBox="0 0 48 48" height="64" preserveAspectRatio="xMidYMid meet" version="1.0"><defs><clipPath id="8d398e14e3"><path d="M 7.117188 12 L 25 12 L 25 38 L 7.117188 38 Z M 7.117188 12 " clip-rule="nonzero"/></clipPath><clipPath id="b04e419913"><path d="M 7.117188 10 L 40.910156 10 L 40.910156 47.019531 L 7.117188 47.019531 Z M 7.117188 10 " clip-rule="nonzero"/></clipPath><clipPath id="0c32410199"><path d="M 7.117188 0 L 21 0 L 21 38 L 7.117188 38 Z M 7.117188 0 " clip-rule="nonzero"/></clipPath></defs><path fill="#ffa000" d="M 29.378906 17.167969 L 24.695312 21.519531 L 20.351562 12.765625 L 22.601562 7.730469 C 23.183594 6.710938 24.097656 6.722656 24.667969 7.730469 Z M 29.378906 17.167969 " fill-opacity="1" fill-rule="nonzero"/><g clip-path="url(#8d398e14e3)"><path fill="#f57f17" d="M 20.351562 12.765625 L 24.695312 21.519531 L 7.199219 37.78125 Z M 20.351562 12.765625 " fill-opacity="1" fill-rule="nonzero"/></g><g clip-path="url(#b04e419913)"><path fill="#ffca28" d="M 34.5 10.519531 C 35.335938 9.714844 36.199219 9.988281 36.421875 11.128906 L 40.976562 37.566406 L 25.878906 46.617188 C 25.351562 46.910156 23.949219 47.035156 23.949219 47.035156 C 23.949219 47.035156 22.671875 46.882812 22.183594 46.597656 L 7.199219 37.78125 Z M 34.5 10.519531 " fill-opacity="1" fill-rule="nonzero"/></g><g clip-path="url(#0c32410199)"><path fill="#ffa000" d="M 20.351562 12.765625 L 7.199219 37.78125 L 13.058594 1.222656 C 13.273438 0.0859375 13.921875 -0.0234375 14.5 0.980469 Z M 20.351562 12.765625 " fill-opacity="1" fill-rule="nonzero"/></g></svg>