<svg xmlns="http://www.w3.org/2000/svg" xmlns:xlink="http://www.w3.org/1999/xlink" width="64" zoomAndPan="magnify" viewBox="0 0 48 48" height="64" preserveAspectRatio="xMidYMid meet" version="1.0"><defs><clipPath id="2bd4a37fcf"><path d="M 3.429688 0 L 44.570312 0 L 44.570312 47 L 3.429688 47 Z M 3.429688 0 " clip-rule="nonzero"/></clipPath></defs><g clip-path="url(#2bd4a37fcf)"><path fill="#e44d26" d="M 7.164062 42.1875 L 3.417969 0.167969 L 44.582031 0.167969 L 40.832031 42.183594 L 23.972656 46.855469 Z M 7.164062 42.1875 " fill-opacity="1" fill-rule="nonzero"/></g><path fill="#f16529" d="M 37.621094 39.507812 L 40.828125 3.605469 L 24 3.605469 L 24 43.285156 Z M 37.621094 39.507812 " fill-opacity="1" fill-rule="nonzero"/><path fill="#ebebeb" d="M 23.984375 8.757812 L 11.078125 8.757812 L 12.46875 24.34375 L 24 24.34375 L 24 19.1875 L 17.179688 19.1875 L 16.710938 13.910156 L 24 13.910156 L 24 8.757812 Z M 24 32.554688 L 23.976562 32.5625 L 18.238281 31.011719 L 17.875 26.902344 L 12.699219 26.902344 L 13.417969 34.992188 L 23.976562 37.910156 L 24 37.90625 Z M 24 32.554688 " fill-opacity="1" fill-rule="nonzero"/><path fill="#ffffff" d="M 23.984375 24.34375 L 30.328125 24.34375 L 29.746094 31.023438 L 23.996094 32.574219 L 23.996094 37.9375 L 34.5625 35.007812 L 35.976562 19.1875 L 24 19.1875 Z M 36.769531 10.140625 L 36.890625 8.757812 L 23.980469 8.757812 L 23.980469 13.910156 L 36.425781 13.910156 L 36.53125 12.75 Z M 36.769531 10.140625 " fill-opacity="1" fill-rule="nonzero"/></svg>