<svg xmlns="http://www.w3.org/2000/svg" xmlns:xlink="http://www.w3.org/1999/xlink" width="64" zoomAndPan="magnify" viewBox="0 0 48 48" height="64" preserveAspectRatio="xMidYMid meet" version="1.0"><defs><clipPath id="d8712d6b78"><path d="M 0.488281 0 L 47.507812 0 L 47.507812 47.019531 L 0.488281 47.019531 Z M 0.488281 0 " clip-rule="nonzero"/></clipPath></defs><g clip-path="url(#d8712d6b78)"><path fill="#ffffff" d="M 0.488281 0 L 47.511719 0 L 47.511719 54.367188 L 0.488281 54.367188 Z M 0.488281 0 " fill-opacity="1" fill-rule="nonzero"/><path fill="#ffffff" d="M 0.488281 0 L 47.511719 0 L 47.511719 47.019531 L 0.488281 47.019531 Z M 0.488281 0 " fill-opacity="1" fill-rule="nonzero"/><path fill="#ffffff" d="M 0.488281 0 L 47.511719 0 L 47.511719 47.019531 L 0.488281 47.019531 Z M 0.488281 0 " fill-opacity="1" fill-rule="nonzero"/><path fill="#f7df1e" d="M 0.488281 0 L 47.511719 0 L 47.511719 47.019531 L 0.488281 47.019531 Z M 0.488281 0 " fill-opacity="1" fill-rule="nonzero"/></g><path fill="#000000" d="M 12.851562 39.292969 L 16.453125 37.117188 C 17.144531 38.347656 17.777344 39.390625 19.292969 39.390625 C 20.742188 39.390625 21.660156 38.820312 21.660156 36.613281 L 21.660156 21.585938 L 26.078125 21.585938 L 26.078125 36.675781 C 26.078125 41.25 23.394531 43.335938 19.480469 43.335938 C 15.945312 43.335938 13.894531 41.503906 12.851562 39.292969 " fill-opacity="1" fill-rule="nonzero"/><path fill="#000000" d="M 28.476562 38.820312 L 32.074219 36.738281 C 33.023438 38.28125 34.253906 39.421875 36.429688 39.421875 C 38.261719 39.421875 39.429688 38.503906 39.429688 37.242188 C 39.429688 35.726562 38.230469 35.191406 36.210938 34.304688 L 35.105469 33.832031 C 31.917969 32.476562 29.804688 30.773438 29.804688 27.171875 C 29.804688 23.859375 32.328125 21.332031 36.273438 21.332031 C 39.082031 21.332031 41.105469 22.3125 42.554688 24.871094 L 39.113281 27.078125 C 38.359375 25.722656 37.535156 25.183594 36.273438 25.183594 C 34.980469 25.183594 34.160156 26.007812 34.160156 27.078125 C 34.160156 28.40625 34.980469 28.941406 36.875 29.761719 L 37.976562 30.234375 C 41.734375 31.84375 43.847656 33.484375 43.847656 37.179688 C 43.847656 41.15625 40.726562 43.335938 36.527344 43.335938 C 32.421875 43.335938 29.773438 41.375 28.476562 38.820312 " fill-opacity="1" fill-rule="nonzero"/></svg>