<svg xmlns="http://www.w3.org/2000/svg" xmlns:xlink="http://www.w3.org/1999/xlink" width="64" zoomAndPan="magnify" viewBox="0 0 48 48" height="64" preserveAspectRatio="xMidYMid meet" version="1.0"><defs><clipPath id="8756c3675a"><path d="M 0.488281 9.316406 L 47.507812 9.316406 L 47.507812 37.96875 L 0.488281 37.96875 Z M 0.488281 9.316406 " clip-rule="nonzero"/></clipPath></defs><g clip-path="url(#8756c3675a)"><path fill="#000000" d="M 11.585938 16.789062 L 20.453125 16.789062 L 20.453125 17.503906 L 12.398438 17.503906 L 12.398438 22.859375 L 19.972656 22.859375 L 19.972656 23.570312 L 12.398438 23.570312 L 12.398438 29.453125 L 20.546875 29.453125 L 20.546875 30.164062 L 11.585938 30.164062 Z M 21.246094 16.789062 L 22.191406 16.789062 L 26.367188 22.671875 L 30.632812 16.789062 L 36.4375 9.320312 L 26.902344 23.289062 L 31.816406 30.164062 L 30.835938 30.164062 L 26.367188 23.90625 L 21.875 30.164062 L 20.914062 30.164062 L 25.867188 23.289062 Z M 32.167969 17.503906 L 32.167969 16.789062 L 42.273438 16.789062 L 42.273438 17.503906 L 37.617188 17.503906 L 37.617188 30.164062 L 36.804688 30.164062 L 36.804688 17.503906 Z M 0.488281 16.789062 L 1.507812 16.789062 L 15.519531 37.960938 L 9.726562 30.164062 L 1.339844 17.800781 L 1.304688 30.164062 L 0.492188 30.164062 L 0.492188 16.789062 Z M 42.191406 29.238281 C 42.027344 29.238281 41.902344 29.105469 41.902344 28.9375 C 41.902344 28.769531 42.027344 28.640625 42.191406 28.640625 C 42.359375 28.640625 42.480469 28.769531 42.480469 28.9375 C 42.480469 29.105469 42.359375 29.238281 42.191406 29.238281 Z M 42.988281 28.453125 L 43.425781 28.453125 C 43.429688 28.691406 43.601562 28.851562 43.855469 28.851562 C 44.140625 28.851562 44.296875 28.679688 44.296875 28.359375 L 44.296875 26.320312 L 44.742188 26.320312 L 44.742188 28.359375 C 44.742188 28.9375 44.410156 29.273438 43.859375 29.273438 C 43.34375 29.273438 42.988281 28.949219 42.988281 28.453125 Z M 45.320312 28.425781 L 45.761719 28.425781 C 45.796875 28.703125 46.0625 28.875 46.445312 28.875 C 46.800781 28.875 47.0625 28.691406 47.0625 28.433594 C 47.0625 28.214844 46.894531 28.082031 46.515625 27.992188 L 46.148438 27.902344 C 45.632812 27.78125 45.398438 27.527344 45.398438 27.105469 C 45.398438 26.589844 45.8125 26.25 46.4375 26.25 C 47.015625 26.25 47.4375 26.589844 47.464844 27.078125 L 47.035156 27.078125 C 46.992188 26.808594 46.761719 26.644531 46.429688 26.644531 C 46.082031 26.644531 45.847656 26.816406 45.847656 27.074219 C 45.847656 27.28125 45.996094 27.398438 46.371094 27.484375 L 46.683594 27.5625 C 47.269531 27.703125 47.511719 27.941406 47.511719 28.375 C 47.511719 28.925781 47.085938 29.273438 46.410156 29.273438 C 45.777344 29.273438 45.351562 28.945312 45.320312 28.425781 Z M 45.320312 28.425781 " fill-opacity="1" fill-rule="nonzero"/></g></svg>