<svg xmlns="http://www.w3.org/2000/svg" xmlns:xlink="http://www.w3.org/1999/xlink" width="64" zoomAndPan="magnify" viewBox="0 0 48 48" height="64" preserveAspectRatio="xMidYMid meet" version="1.0"><defs><clipPath id="09f10db200"><path d="M 0.488281 2 L 47.507812 2 L 47.507812 45 L 0.488281 45 Z M 0.488281 2 " clip-rule="nonzero"/></clipPath></defs><g clip-path="url(#09f10db200)"><path fill="#00d8ff" d="M 39.128906 16.089844 C 38.640625 15.921875 38.136719 15.765625 37.617188 15.617188 C 37.703125 15.269531 37.78125 14.925781 37.851562 14.589844 C 38.992188 9.058594 38.246094 4.605469 35.691406 3.140625 C 33.242188 1.734375 29.238281 3.199219 25.191406 6.703125 C 24.800781 7.042969 24.410156 7.398438 24.023438 7.773438 C 23.761719 7.523438 23.503906 7.285156 23.246094 7.058594 C 19.003906 3.308594 14.753906 1.730469 12.203125 3.199219 C 9.753906 4.609375 9.03125 8.796875 10.058594 14.039062 C 10.160156 14.542969 10.277344 15.0625 10.40625 15.585938 C 9.804688 15.757812 9.226562 15.9375 8.667969 16.128906 C 3.699219 17.855469 0.523438 20.558594 0.523438 23.367188 C 0.523438 26.261719 3.929688 29.167969 9.109375 30.929688 C 9.515625 31.070312 9.941406 31.199219 10.378906 31.324219 C 10.238281 31.890625 10.113281 32.449219 10.011719 32.992188 C 9.027344 38.140625 9.792969 42.230469 12.234375 43.632812 C 14.757812 45.078125 18.988281 43.589844 23.105469 40.007812 C 23.433594 39.722656 23.757812 39.421875 24.085938 39.109375 C 24.511719 39.511719 24.933594 39.898438 25.355469 40.261719 C 29.347656 43.679688 33.289062 45.058594 35.726562 43.65625 C 38.242188 42.203125 39.0625 37.808594 38 32.46875 C 37.917969 32.058594 37.824219 31.640625 37.71875 31.21875 C 38.015625 31.132812 38.308594 31.039062 38.59375 30.945312 C 43.976562 29.167969 47.476562 26.300781 47.476562 23.367188 C 47.476562 20.550781 44.199219 17.828125 39.128906 16.089844 Z M 37.960938 29.050781 C 37.703125 29.136719 37.441406 29.21875 37.171875 29.296875 C 36.578125 27.425781 35.777344 25.433594 34.792969 23.375 C 35.730469 21.367188 36.5 19.398438 37.078125 17.539062 C 37.558594 17.679688 38.027344 17.824219 38.476562 17.976562 C 42.820312 19.46875 45.46875 21.667969 45.46875 23.367188 C 45.46875 25.171875 42.609375 27.515625 37.960938 29.050781 Z M 36.03125 32.855469 C 36.503906 35.21875 36.570312 37.355469 36.257812 39.023438 C 35.980469 40.523438 35.414062 41.527344 34.71875 41.925781 C 33.242188 42.777344 30.078125 41.671875 26.664062 38.746094 C 26.273438 38.410156 25.878906 38.054688 25.484375 37.675781 C 26.804688 36.234375 28.128906 34.558594 29.417969 32.699219 C 31.6875 32.5 33.832031 32.171875 35.777344 31.722656 C 35.875 32.109375 35.957031 32.484375 36.03125 32.855469 Z M 16.53125 41.777344 C 15.085938 42.289062 13.933594 42.300781 13.238281 41.902344 C 11.757812 41.050781 11.140625 37.769531 11.980469 33.367188 C 12.078125 32.863281 12.191406 32.34375 12.324219 31.8125 C 14.246094 32.238281 16.375 32.542969 18.652344 32.726562 C 19.949219 34.546875 21.3125 36.21875 22.683594 37.683594 C 22.382812 37.972656 22.085938 38.246094 21.785156 38.503906 C 19.964844 40.089844 18.140625 41.214844 16.53125 41.777344 Z M 9.757812 29.039062 C 7.46875 28.261719 5.578125 27.25 4.28125 26.140625 C 3.117188 25.152344 2.53125 24.164062 2.53125 23.367188 C 2.53125 21.664062 5.078125 19.492188 9.328125 18.015625 C 9.847656 17.835938 10.386719 17.667969 10.945312 17.511719 C 11.535156 19.414062 12.304688 21.402344 13.234375 23.414062 C 12.292969 25.453125 11.511719 27.476562 10.917969 29.402344 C 10.519531 29.285156 10.132812 29.167969 9.757812 29.039062 Z M 12.027344 13.65625 C 11.144531 9.164062 11.734375 5.777344 13.207031 4.929688 C 14.777344 4.023438 18.25 5.3125 21.910156 8.550781 C 22.144531 8.757812 22.382812 8.972656 22.617188 9.199219 C 21.253906 10.65625 19.90625 12.316406 18.617188 14.125 C 16.410156 14.328125 14.296875 14.65625 12.351562 15.09375 C 12.230469 14.605469 12.121094 14.125 12.027344 13.65625 Z M 32.28125 18.632812 C 31.816406 17.835938 31.339844 17.054688 30.855469 16.296875 C 32.351562 16.484375 33.785156 16.734375 35.136719 17.039062 C 34.730469 18.332031 34.226562 19.683594 33.632812 21.066406 C 33.207031 20.261719 32.757812 19.449219 32.28125 18.632812 Z M 24.023438 10.625 C 24.949219 11.621094 25.875 12.738281 26.785156 13.945312 C 25.867188 13.902344 24.9375 13.878906 24 13.878906 C 23.070312 13.878906 22.148438 13.902344 21.234375 13.945312 C 22.148438 12.746094 23.082031 11.632812 24.023438 10.625 Z M 15.710938 18.648438 C 15.246094 19.449219 14.804688 20.253906 14.386719 21.066406 C 13.800781 19.683594 13.300781 18.328125 12.894531 17.019531 C 14.234375 16.722656 15.660156 16.476562 17.148438 16.292969 C 16.65625 17.058594 16.175781 17.84375 15.710938 18.648438 Z M 17.191406 30.578125 C 15.65625 30.410156 14.203125 30.179688 12.863281 29.886719 C 13.28125 28.554688 13.789062 27.171875 14.386719 25.761719 C 14.808594 26.570312 15.25 27.375 15.71875 28.179688 C 16.195312 29 16.6875 29.796875 17.191406 30.578125 Z M 24.078125 36.246094 C 23.128906 35.222656 22.179688 34.09375 21.253906 32.878906 C 22.152344 32.914062 23.070312 32.933594 24 32.933594 C 24.957031 32.933594 25.902344 32.910156 26.832031 32.871094 C 25.921875 34.105469 24.996094 35.238281 24.078125 36.246094 Z M 33.652344 25.691406 C 34.277344 27.113281 34.808594 28.492188 35.230469 29.800781 C 33.867188 30.109375 32.398438 30.359375 30.847656 30.542969 C 31.335938 29.777344 31.816406 28.980469 32.289062 28.164062 C 32.769531 27.339844 33.222656 26.511719 33.652344 25.691406 Z M 30.550781 27.167969 C 29.816406 28.4375 29.0625 29.644531 28.300781 30.785156 C 26.90625 30.882812 25.46875 30.9375 24 30.9375 C 22.539062 30.9375 21.117188 30.890625 19.75 30.800781 C 18.953125 29.644531 18.183594 28.433594 17.453125 27.179688 C 16.726562 25.929688 16.058594 24.667969 15.449219 23.414062 C 16.058594 22.15625 16.726562 20.894531 17.449219 19.644531 C 18.171875 18.394531 18.9375 17.1875 19.726562 16.035156 C 21.121094 15.929688 22.554688 15.875 24 15.875 C 25.453125 15.875 26.886719 15.933594 28.28125 16.039062 C 29.058594 17.179688 29.816406 18.382812 30.546875 19.632812 C 31.28125 20.898438 31.957031 22.15625 32.570312 23.386719 C 31.960938 24.636719 31.285156 25.902344 30.550781 27.167969 Z M 34.6875 4.867188 C 36.261719 5.773438 36.875 9.410156 35.886719 14.1875 C 35.824219 14.492188 35.75 14.800781 35.675781 15.113281 C 33.726562 14.667969 31.613281 14.335938 29.398438 14.128906 C 28.105469 12.296875 26.769531 10.636719 25.425781 9.195312 C 25.789062 8.851562 26.148438 8.519531 26.507812 8.210938 C 29.972656 5.207031 33.214844 4.023438 34.691406 4.867188 Z M 24 19.191406 C 26.316406 19.191406 28.191406 21.058594 28.191406 23.363281 C 28.191406 25.667969 26.316406 27.539062 24 27.539062 C 21.683594 27.539062 19.808594 25.667969 19.808594 23.363281 C 19.808594 21.058594 21.683594 19.191406 24 19.191406 Z M 24 19.191406 " fill-opacity="1" fill-rule="nonzero"/></g></svg>