<svg xmlns="http://www.w3.org/2000/svg" xmlns:xlink="http://www.w3.org/1999/xlink" width="64" zoomAndPan="magnify" viewBox="0 0 48 48" height="64" preserveAspectRatio="xMidYMid meet" version="1.0"><defs><clipPath id="91a5348708"><path d="M 0.488281 0 L 47.507812 0 L 47.507812 47.019531 L 0.488281 47.019531 Z M 0.488281 0 " clip-rule="nonzero"/></clipPath></defs><g clip-path="url(#91a5348708)"><path fill="#f06292" d="M 23.992188 0.0390625 C 36.980469 0.0390625 47.511719 10.566406 47.511719 23.558594 C 47.511719 36.546875 36.980469 47.078125 23.992188 47.078125 C 11 47.078125 0.472656 36.546875 0.472656 23.558594 C 0.472656 10.566406 11 0.0390625 23.992188 0.0390625 Z M 23.992188 0.0390625 " fill-opacity="1" fill-rule="evenodd"/></g><path fill="#ffffff" d="M 38.742188 10.105469 C 37.679688 5.925781 30.753906 4.554688 24.199219 6.882812 C 20.296875 8.269531 16.074219 10.445312 13.035156 13.285156 C 9.425781 16.660156 8.851562 19.601562 9.085938 20.828125 C 9.925781 25.160156 15.863281 27.996094 18.304688 30.097656 L 18.304688 30.109375 C 17.582031 30.464844 12.316406 33.128906 11.082031 35.855469 C 9.78125 38.730469 11.289062 40.792969 12.289062 41.074219 C 15.382812 41.933594 18.554688 40.386719 20.261719 37.839844 C 21.910156 35.386719 21.773438 32.214844 21.054688 30.636719 C 22.042969 30.378906 23.195312 30.261719 24.65625 30.429688 C 28.78125 30.914062 29.589844 33.488281 29.433594 34.566406 C 29.28125 35.644531 28.414062 36.238281 28.125 36.417969 C 27.835938 36.597656 27.75 36.660156 27.773438 36.792969 C 27.808594 36.984375 27.941406 36.976562 28.1875 36.9375 C 28.527344 36.878906 30.355469 36.058594 30.433594 34.070312 C 30.53125 31.542969 28.113281 28.714844 23.824219 28.789062 C 22.058594 28.820312 20.949219 28.988281 20.144531 29.285156 C 20.085938 29.21875 20.027344 29.152344 19.964844 29.085938 C 17.316406 26.257812 12.414062 24.257812 12.621094 20.457031 C 12.699219 19.074219 13.179688 15.433594 22.035156 11.019531 C 29.292969 7.402344 35.101562 8.398438 36.109375 10.605469 C 37.542969 13.753906 33.003906 19.609375 25.464844 20.457031 C 22.59375 20.777344 21.082031 19.664062 20.707031 19.25 C 20.308594 18.8125 20.25 18.792969 20.105469 18.875 C 19.863281 19.007812 20.015625 19.394531 20.105469 19.625 C 20.328125 20.210938 21.253906 21.25 22.828125 21.765625 C 24.210938 22.222656 27.582031 22.46875 31.660156 20.894531 C 36.226562 19.125 39.792969 14.210938 38.742188 10.105469 Z M 19.316406 31.390625 C 19.660156 32.65625 19.621094 33.839844 19.269531 34.90625 C 19.230469 35.027344 19.1875 35.144531 19.140625 35.257812 C 19.089844 35.375 19.042969 35.492188 18.988281 35.605469 C 18.714844 36.167969 18.347656 36.699219 17.898438 37.1875 C 16.535156 38.679688 14.625 39.242188 13.804688 38.765625 C 12.921875 38.253906 13.367188 36.152344 14.949219 34.476562 C 16.652344 32.675781 19.105469 31.515625 19.105469 31.515625 L 19.101562 31.507812 C 19.171875 31.46875 19.246094 31.433594 19.316406 31.390625 Z M 19.316406 31.390625 " fill-opacity="1" fill-rule="nonzero"/></svg>