<svg xmlns="http://www.w3.org/2000/svg" xmlns:xlink="http://www.w3.org/1999/xlink" width="64" zoomAndPan="magnify" viewBox="0 0 48 48" height="64" preserveAspectRatio="xMidYMid meet" version="1.0"><defs><clipPath id="d6791b1b65"><path d="M 0.488281 0 L 47.507812 0 L 47.507812 47.019531 L 0.488281 47.019531 Z M 0.488281 0 " clip-rule="nonzero"/></clipPath></defs><g clip-path="url(#d6791b1b65)"><path fill="#ffffff" d="M 0.488281 0 L 47.511719 0 L 47.511719 54.367188 L 0.488281 54.367188 Z M 0.488281 0 " fill-opacity="1" fill-rule="nonzero"/><path fill="#ffffff" d="M 0.488281 0 L 47.511719 0 L 47.511719 47.019531 L 0.488281 47.019531 Z M 0.488281 0 " fill-opacity="1" fill-rule="nonzero"/><path fill="#ffffff" d="M 0.488281 0 L 47.511719 0 L 47.511719 47.019531 L 0.488281 47.019531 Z M 0.488281 0 " fill-opacity="1" fill-rule="nonzero"/><path fill="#007acc" d="M 0.488281 47.019531 L 47.511719 47.019531 L 47.511719 0 L 0.488281 0 Z M 0.488281 47.019531 " fill-opacity="1" fill-rule="nonzero"/></g><path fill="#ffffff" d="M 10.886719 23.664062 L 10.871094 25.589844 L 16.992188 25.589844 L 16.992188 42.980469 L 21.320312 42.980469 L 21.320312 25.589844 L 27.441406 25.589844 L 27.441406 23.703125 C 27.441406 22.65625 27.417969 21.785156 27.386719 21.761719 C 27.367188 21.730469 23.640625 21.71875 19.125 21.726562 L 10.90625 21.746094 Z M 10.886719 23.664062 " fill-opacity="1" fill-rule="nonzero"/><path fill="#ffffff" d="M 38.429688 21.695312 C 39.625 21.992188 40.535156 22.523438 41.371094 23.386719 C 41.804688 23.851562 42.445312 24.691406 42.496094 24.894531 C 42.511719 24.957031 40.46875 26.328125 39.226562 27.097656 C 39.183594 27.125 39.007812 26.933594 38.804688 26.632812 C 38.199219 25.753906 37.5625 25.371094 36.59375 25.304688 C 35.167969 25.210938 34.25 25.953125 34.257812 27.203125 C 34.257812 27.566406 34.3125 27.785156 34.460938 28.082031 C 34.773438 28.730469 35.355469 29.121094 37.183594 29.910156 C 40.550781 31.359375 41.992188 32.3125 42.886719 33.671875 C 43.886719 35.1875 44.109375 37.605469 43.429688 39.402344 C 42.683594 41.359375 40.832031 42.6875 38.230469 43.128906 C 37.421875 43.269531 35.511719 43.246094 34.644531 43.089844 C 32.757812 42.753906 30.964844 41.824219 29.863281 40.597656 C 29.429688 40.121094 28.585938 38.875 28.636719 38.785156 C 28.660156 38.753906 28.855469 38.636719 29.070312 38.507812 C 29.28125 38.390625 30.070312 37.933594 30.816406 37.5 L 32.167969 36.71875 L 32.453125 37.136719 C 32.847656 37.738281 33.714844 38.566406 34.234375 38.84375 C 35.738281 39.636719 37.796875 39.523438 38.8125 38.613281 C 39.246094 38.21875 39.421875 37.808594 39.421875 37.203125 C 39.421875 36.65625 39.355469 36.417969 39.070312 36.007812 C 38.707031 35.484375 37.960938 35.042969 35.839844 34.128906 C 33.414062 33.082031 32.371094 32.433594 31.414062 31.402344 C 30.863281 30.804688 30.339844 29.851562 30.125 29.050781 C 29.945312 28.386719 29.898438 26.722656 30.042969 26.050781 C 30.542969 23.707031 32.3125 22.074219 34.863281 21.589844 C 35.691406 21.433594 37.617188 21.492188 38.429688 21.695312 Z M 38.429688 21.695312 " fill-opacity="1" fill-rule="nonzero"/></svg>