<svg viewBox="67.35 63.198 357.348 401.145" xmlns="http://www.w3.org/2000/svg" xmlns:xlink="http://www.w3.org/1999/xlink">
  <defs>
    <linearGradient id="linear-gradient" x1="258.91" y1="124.54" x2="299.95" y2="123.91" gradientUnits="userSpaceOnUse" gradientTransform="matrix(1, 0, 0, 1, 14.786984, 60.742889)">
      <stop offset="0.01"></stop>
      <stop offset="0.13" stop-opacity="0.69"></stop>
      <stop offset="1" stop-opacity="0"></stop>
    </linearGradient>
    <linearGradient id="linear-gradient-2" x1="383.34" y1="84.62" x2="71.09" y2="410.77" gradientTransform="matrix(1, 0, 0, 1, 29.573968, 121.485779)" xlink:href="#linear-gradient"></linearGradient>
    <linearGradient id="linear-gradient-3" x1="299.88" y1="206.77" x2="210.25" y2="300.4" gradientTransform="matrix(1, 0, 0, 1, 29.573968, 121.485779)" xlink:href="#linear-gradient"></linearGradient>
    <linearGradient id="linear-gradient-4" x1="169.25" y1="193.08" x2="290.38" y2="268.95" gradientTransform="matrix(1, 0, 0, 1, 29.573968, 121.485779)" xlink:href="#linear-gradient"></linearGradient>
    <linearGradient id="linear-gradient-5" x1="226.76" y1="234.44" x2="321.06" y2="234.44" gradientTransform="matrix(1, 0, 0, 1, 29.573968, 121.485779)" xlink:href="#linear-gradient"></linearGradient>
    <linearGradient id="linear-gradient-6" x1="311.61" y1="323.82" x2="285.66" y2="317.16" gradientTransform="matrix(1, 0, 0, 1, 29.573968, 121.485779)" xlink:href="#linear-gradient"></linearGradient>
    <linearGradient id="linear-gradient-7" x1="300.4" y1="335.06" x2="327.3" y2="335.06" gradientTransform="matrix(1, 0, 0, 1, 29.573968, 121.485779)" xlink:href="#linear-gradient"></linearGradient>
    <linearGradient id="linear-gradient-8" x1="200.19" y1="81.05" x2="227.92" y2="104.12" gradientTransform="matrix(1, 0, 0, 1, 86.013966, 126.825775)" xlink:href="#linear-gradient"></linearGradient>
    <linearGradient id="linear-gradient-9" x1="274.89" y1="85.38" x2="223.64" y2="105.68" gradientTransform="matrix(1, 0, 0, 1, 29.573968, 121.485779)" xlink:href="#linear-gradient"></linearGradient>
    <linearGradient id="linear-gradient-10" x1="188.44" y1="144.76" x2="251.94" y2="142.56" gradientTransform="matrix(1, 0, 0, 1, 29.573968, 121.485779)" xlink:href="#linear-gradient"></linearGradient>
    <linearGradient id="linear-gradient-11" x1="241.5" y1="248.75" x2="312.72" y2="218.8" gradientTransform="matrix(1, 0, 0, 1, 29.573968, 121.485779)" xlink:href="#linear-gradient"></linearGradient>
  </defs>
  <title>Waiting Notification</title>
  <path d="M 420.977 208.223 C 426.084 228.45 421.988 249.901 409.787 266.823 C 400.787 279.073 387.957 288.233 379.967 301.133 C 362.697 328.983 371.967 367.013 356.127 395.703 C 342.887 419.703 315.457 431.493 289.987 441.613 C 269.987 449.553 249.787 457.543 228.587 460.743 C 207.387 463.943 184.587 461.913 166.217 450.883 C 151.067 441.813 139.937 427.433 129.657 413.073 C 104.387 377.743 81.547 339.273 73.787 296.533 C 66.027 253.793 75.707 205.853 107.527 176.283 C 123.017 161.883 143.307 151.953 154.237 133.843 C 165.707 114.843 165.867 88.333 183.697 75.093 C 190.277 70.203 198.457 67.933 206.577 66.853 C 226.126 64.337 245.967 68.153 263.187 77.743 C 280.657 87.533 294.997 103.093 314.027 109.353 C 338.657 117.463 370.267 111.233 386.637 135.233 C 399.787 154.533 415.137 185.743 420.977 208.223 Z" fill="#68e1fd" opacity="0.18" style="isolation: isolate;"></path>
  <path d="M 316.177 194.563 C 315.891 195.166 315.502 195.714 315.027 196.183 C 311.216 200.209 306.282 202.996 300.867 204.183 C 298.955 204.623 296.999 204.845 295.037 204.843 C 293.887 197.423 292.717 189.993 291.817 182.543 C 291.107 176.723 290.577 170.913 290.327 165.073 C 290.157 161.413 282.227 148.653 283.847 145.233 C 285.637 141.473 298.527 154.343 299.977 156.793 C 308.027 170.293 310.917 180.733 316.437 192.343 C 316.646 193.088 316.553 193.886 316.177 194.563 Z" fill="#68e1fd"></path>
  <path d="M 302.167 202.823 C 301.781 203.325 301.345 203.788 300.867 204.203 C 298.955 204.643 296.999 204.865 295.037 204.863 C 293.887 197.443 292.717 190.013 291.817 182.563 C 292.157 176.71 292.774 170.88 293.667 165.073 C 293.287 167.503 296.277 172.803 297.087 175.183 L 300.597 185.553 C 302.427 190.963 306.337 197.543 302.167 202.823 Z" fill="url(#linear-gradient)"></path>
  <path d="M 297.857 215.513 C 298.657 220.393 299.677 225.333 302.087 229.653 C 303.327 231.873 305.177 234.053 307.687 234.443 C 309.083 234.575 310.49 234.366 311.787 233.833 C 314.475 232.908 317.01 231.587 319.307 229.913 C 321.502 228.23 323.571 226.388 325.497 224.403 C 328.362 221.699 331.013 218.777 333.427 215.663 C 334.537 214.163 335.547 212.583 336.757 211.153 C 341.757 205.203 349.757 202.533 355.427 197.223 C 356.957 195.803 360.057 189.303 359.827 187.223 C 357.747 186.023 353.477 190.853 351.177 191.553 C 348.877 192.253 346.727 193.393 344.417 194.043 C 341.651 194.814 338.732 194.852 335.947 194.153 C 335.007 193.913 333.887 179.083 332.947 179.423 C 332.474 179.621 332.05 179.922 331.707 180.303 C 329.767 182.303 328.707 199.373 327.097 201.593 C 324.887 204.593 321.827 206.873 318.797 209.053 C 318.527 209.243 318.187 209.443 317.887 209.293 C 317.687 209.144 317.557 208.92 317.527 208.673 C 316.737 205.743 315.847 202.833 314.877 199.963 C 314.197 197.963 313.237 195.763 311.227 195.163 C 309.437 194.633 307.577 195.643 305.977 196.613 C 303.917 197.873 301.837 199.113 299.787 200.383 C 298.647 201.083 297.267 201.763 296.727 203.053 C 296.067 204.603 296.627 206.743 296.817 208.333 C 297.117 210.743 297.467 213.133 297.857 215.513 Z" fill="#f5bcba"></path>
  <path d="M 316.107 351.523 C 316.107 354.583 315.957 357.593 315.687 360.583 C 308.682 437.406 221.141 477.838 158.113 433.36 C 131.822 414.807 116.04 384.758 115.687 352.583 C 115.687 352.243 115.687 351.913 115.687 351.583 C 114.916 274.437 197.947 225.387 265.143 263.293 C 296.952 281.236 316.482 315.063 316.117 351.583 L 316.107 351.523 Z" fill="#68e1fd"></path>
  <path d="M 316.107 351.523 C 316.107 354.583 315.957 357.593 315.687 360.583 C 292.627 376.273 258.687 386.173 220.837 386.173 C 176.837 386.173 138.177 372.803 115.687 352.533 C 115.687 352.193 115.687 351.863 115.687 351.533 C 114.916 274.387 197.947 225.337 265.143 263.243 C 296.952 281.186 316.482 315.013 316.117 351.533 L 316.107 351.523 Z" fill="url(#linear-gradient-2)"></path>
  <path d="M 261.847 312.343 C 265.847 313.783 270.197 314.813 273.477 317.543 C 276.387 319.953 278.157 323.443 279.587 326.933 C 284.355 338.645 286.075 351.375 284.587 363.933 C 284.187 367.273 283.587 370.713 284.457 373.933 C 285.327 377.153 288.297 380.173 291.637 379.773 C 296.267 370.573 296.367 359.833 296.377 349.533 C 296.377 342.013 296.377 334.333 293.857 327.243 C 291.797 321.403 288.157 316.243 284.397 311.333 C 270.687 293.333 254.097 276.543 232.977 268.453 C 232.101 268.005 231.095 267.881 230.137 268.103 C 225.787 269.693 226.497 277.433 228.187 280.543 C 230.587 284.839 233.259 288.978 236.187 292.933 C 242.61 301.82 251.547 308.58 261.847 312.343 Z" fill="url(#linear-gradient-3)"></path>
  <path d="M 222.297 289.743 C 222.356 288.397 222.53 287.059 222.817 285.743 C 223.131 284.412 224.161 283.366 225.487 283.033 C 226.036 283.018 226.584 282.968 227.127 282.883 C 228.237 282.543 228.707 281.253 229.027 280.143 L 232.577 267.743 C 233.257 265.343 233.947 262.823 233.427 260.393 C 232.607 256.593 229.117 254.023 225.717 252.163 C 223.247 250.803 220.467 249.593 217.717 250.103 C 213.457 250.893 210.987 255.293 209.397 259.323 C 207.547 263.641 206.408 268.231 206.027 272.913 C 205.747 278.323 205.287 291.573 208.637 296.303 C 213.277 302.943 221.557 295.743 222.297 289.743 Z" fill="url(#linear-gradient-4)"></path>
  <path d="M 276.237 274.093 C 285.307 277.163 294.977 278.453 303.717 282.363 C 304.286 282.535 304.758 282.938 305.017 283.473 C 305.093 283.906 305.038 284.352 304.857 284.753 C 297.476 306.704 293.313 329.608 292.497 352.753 C 297.727 353.694 303.071 353.812 308.337 353.103 C 308.929 353.066 309.502 352.884 310.007 352.573 C 310.492 352.148 310.858 351.603 311.067 350.993 C 319.527 332 327.12 312.65 333.847 292.943 C 335.037 289.453 336.217 285.803 335.737 282.143 C 335.047 276.813 331.037 272.613 327.227 268.823 L 297.537 239.203 C 296.782 238.351 295.855 237.67 294.817 237.203 C 293.623 236.848 292.36 236.786 291.137 237.023 C 279.427 238.473 263.437 238.923 241.917 238.023 C 239.127 237.903 252.917 253.793 254.067 256.843 C 254.987 259.263 257.897 262.383 259.677 264.263 C 264.137 268.943 270.157 272.033 276.237 274.093 Z" fill="#525263"></path>
  <path d="M 276.237 274.093 C 285.307 277.163 294.977 278.453 303.717 282.363 C 304.286 282.535 304.758 282.938 305.017 283.473 C 305.093 283.906 305.038 284.352 304.857 284.753 C 297.476 306.704 293.313 329.608 292.497 352.753 C 297.727 353.694 303.071 353.812 308.337 353.103 C 308.929 353.066 309.502 352.884 310.007 352.573 C 310.492 352.148 310.858 351.603 311.067 350.993 C 319.527 332 327.12 312.65 333.847 292.943 C 335.037 289.453 336.217 285.803 335.737 282.143 C 335.047 276.813 331.037 272.613 327.227 268.823 L 297.537 239.203 C 296.782 238.351 295.855 237.67 294.817 237.203 C 293.623 236.848 292.36 236.786 291.137 237.023 C 279.427 238.473 263.437 238.923 241.917 238.023 C 239.127 237.903 252.917 253.793 254.067 256.843 C 254.987 259.263 257.897 262.383 259.677 264.263 C 264.137 268.943 270.157 272.033 276.237 274.093 Z" fill="url(#linear-gradient-5)"></path>
  <path d="M 290.977 365.883 C 290.248 367.016 289.755 368.285 289.527 369.613 C 288.994 371.937 288.6 374.292 288.347 376.663 C 288.147 378.503 288.077 380.503 289.127 382.013 C 290.177 383.523 291.907 384.073 293.527 384.703 C 297.605 386.381 301.567 388.329 305.387 390.533 C 307.967 391.953 310.657 393.423 313.597 393.533 C 316.537 393.643 319.787 392.033 320.457 389.173 C 320.689 387.796 320.572 386.383 320.117 385.063 C 318.512 379.325 315.364 374.137 311.017 370.063 C 310.255 369.319 309.405 368.671 308.487 368.133 C 307.606 367.678 306.685 367.303 305.737 367.013 C 303.066 366.036 300.329 365.25 297.547 364.663 C 295.117 364.273 292.657 363.553 290.977 365.883 Z" fill="#2e2e3f"></path>
  <path d="M 290.977 365.883 C 290.248 367.016 289.755 368.285 289.527 369.613 C 288.994 371.937 288.6 374.292 288.347 376.663 C 288.147 378.503 288.077 380.503 289.127 382.013 C 290.177 383.523 291.907 384.073 293.527 384.703 C 297.605 386.381 301.567 388.329 305.387 390.533 C 307.967 391.953 310.657 393.423 313.597 393.533 C 316.537 393.643 319.787 392.033 320.457 389.173 C 320.689 387.796 320.572 386.383 320.117 385.063 C 318.512 379.325 315.364 374.137 311.017 370.063 C 310.255 369.319 309.405 368.671 308.487 368.133 C 307.606 367.678 306.685 367.303 305.737 367.013 C 303.066 366.036 300.329 365.25 297.547 364.663 C 295.117 364.273 292.657 363.553 290.977 365.883 Z" fill="url(#linear-gradient-6)"></path>
  <path d="M 293.947 353.503 C 293.189 357.459 292.794 361.475 292.767 365.503 C 292.767 367.273 292.887 369.233 294.157 370.503 C 295.359 371.458 296.891 371.897 298.417 371.723 C 300.256 371.655 302.071 371.28 303.787 370.613 C 304.167 370.494 304.512 370.281 304.787 369.993 C 304.99 369.709 305.13 369.385 305.197 369.043 C 306.723 363.318 307.532 357.427 307.607 351.503 C 307.704 350.574 307.512 349.638 307.057 348.823 C 306.107 347.493 304.137 347.553 302.537 347.873 C 300.489 348.311 298.481 348.924 296.537 349.703 C 294.697 350.343 294.317 351.603 293.947 353.503 Z" fill="#f5bcba"></path>
  <path d="M 313.667 372.303 C 314.39 374.08 314.978 375.908 315.427 377.773 C 315.737 379.223 315.917 380.773 316.847 381.933 C 318.027 383.383 320.077 383.753 321.947 383.783 C 323.488 383.87 325.029 383.61 326.457 383.023 C 327.2 382.732 327.821 382.195 328.217 381.503 C 328.495 380.819 328.591 380.075 328.497 379.343 C 328.351 374.262 327.084 369.277 324.787 364.743 C 323.47 362.399 321.986 360.154 320.347 358.023 C 319.829 357.064 318.957 356.347 317.917 356.023 C 316.837 355.985 315.787 356.385 315.007 357.133 C 313.357 358.373 309.727 360.443 310.107 362.793 C 310.587 365.923 312.547 369.333 313.667 372.303 Z" fill="#f5bcba"></path>
  <path d="M 325.787 375.993 C 324.655 376.626 323.557 377.317 322.497 378.063 C 320.847 378.973 318.907 379.153 317.097 379.673 C 316.619 379.764 316.18 379.998 315.837 380.343 C 315.588 380.679 315.432 381.076 315.387 381.493 C 315.047 384.223 315.159 386.989 315.717 389.683 C 316.637 395.51 317.71 401.313 318.937 407.093 C 319.447 409.473 320.057 411.983 321.787 413.693 C 323.517 415.403 326.147 415.993 328.607 416.063 C 330.909 416.195 333.208 415.766 335.307 414.813 C 338.689 413.002 341.061 409.747 341.747 405.973 C 342.398 402.227 341.939 398.372 340.427 394.883 C 339.4 392.497 338.204 390.188 336.847 387.973 C 335.047 384.88 333.254 381.786 331.467 378.693 C 330.107 376.333 328.867 374.683 325.787 375.993 Z" fill="#2e2e3f"></path>
  <path d="M 325.787 375.993 C 324.655 376.626 323.557 377.317 322.497 378.063 C 320.847 378.973 318.907 379.153 317.097 379.673 C 316.619 379.764 316.18 379.998 315.837 380.343 C 315.588 380.679 315.432 381.076 315.387 381.493 C 315.047 384.223 315.159 386.989 315.717 389.683 C 316.637 395.51 317.71 401.313 318.937 407.093 C 319.447 409.473 320.057 411.983 321.787 413.693 C 323.517 415.403 326.147 415.993 328.607 416.063 C 330.909 416.195 333.208 415.766 335.307 414.813 C 338.689 413.002 341.061 409.747 341.747 405.973 C 342.398 402.227 341.939 398.372 340.427 394.883 C 339.4 392.497 338.204 390.188 336.847 387.973 C 335.047 384.88 333.254 381.786 331.467 378.693 C 330.107 376.333 328.867 374.683 325.787 375.993 Z" fill="url(#linear-gradient-7)"></path>
  <path d="M 204.627 192.953 C 203.752 195.154 203.167 197.46 202.887 199.813 C 201.936 205.904 201.328 212.044 201.067 218.203 C 200.567 229.963 201.327 241.743 200.997 253.503 C 200.657 265.733 199.217 278.413 203.617 289.823 C 204.302 291.893 205.459 293.776 206.997 295.323 C 208.579 296.87 210.848 297.49 212.997 296.963 C 214.936 296.216 216.415 294.607 216.997 292.613 C 217.548 290.642 217.791 288.598 217.717 286.553 L 217.877 275.373 C 217.877 275.143 217.877 274.873 218.107 274.773 C 218.303 274.705 218.52 274.747 218.677 274.883 C 219.537 275.626 220.355 276.418 221.127 277.253 C 222.017 277.973 223.437 278.323 224.227 277.493 C 224.669 276.904 224.84 276.155 224.697 275.433 C 224.217 270.593 219.997 267.103 217.487 262.933 C 213.867 256.933 213.867 249.373 214.777 242.393 C 215.907 233.653 218.267 225.123 220.617 216.623 L 222.617 209.433 C 224.127 203.973 225.617 198.013 223.417 192.783 C 221.625 188.709 217.995 185.736 213.647 184.783 C 209.467 184.013 206.137 189.553 204.627 192.953 Z" fill="#f5bcba"></path>
  <path d="M 297.467 238.423 C 296.177 241.893 288.897 237.843 284.737 239.923 C 276.797 243.923 267.737 239.813 258.887 239.923 C 249.467 240.093 242.967 249.373 233.617 250.553 C 232.937 250.693 232.237 250.693 231.557 250.553 C 230.267 250.173 229.507 248.883 228.957 247.673 C 228.15 245.806 227.573 243.849 227.237 241.843 C 226.077 235.203 227.237 228.083 228.477 221.333 C 229.517 215.613 230.554 209.89 231.587 204.163 C 232.787 197.496 233.997 190.79 235.217 184.043 C 235.928 179.592 236.931 175.193 238.217 170.873 C 238.457 170.123 238.707 169.393 238.977 168.673 C 241.303 162.808 244.109 157.146 247.367 151.743 C 249.367 148.273 251.367 144.743 254.457 142.113 C 257.907 139.203 262.357 137.753 266.827 137.053 C 270.847 136.295 274.992 136.536 278.897 137.753 C 281.127 138.533 281.967 140.893 283.737 142.343 C 285.981 144.005 287.983 145.971 289.687 148.183 C 291.418 150.854 292.654 153.814 293.337 156.923 C 299.607 181.303 290.537 207.603 296.497 232.053 C 297.177 234.923 298.497 235.683 297.467 238.423 Z" fill="#68e1fd"></path>
  <polygon points="288.947 152.783 289.727 157.893 286.727 156.223 286.727 169.763 283.307 154.723 286.617 149.903 288.947 152.783" fill="url(#linear-gradient-8)"></polygon>
  <path d="M 263.547 152.453 L 265.437 153.453 L 268.437 156.063 L 260.437 177.523 C 260.437 177.523 272.057 159.643 272.437 150.523 C 272.672 144.913 271.973 139.303 270.367 133.923 L 263.547 152.453 Z" fill="url(#linear-gradient-9)"></path>
  <path d="M 237.927 213.963 C 237.292 218.876 237.292 223.85 237.927 228.763 C 238.337 231.853 238.997 234.933 238.787 238.033 C 238.797 238.639 238.603 239.23 238.237 239.713 C 237.767 240.095 237.191 240.322 236.587 240.363 C 233.46 240.856 230.33 241.36 227.197 241.873 C 226.037 235.233 227.197 228.113 228.437 221.363 C 229.477 215.643 230.514 209.92 231.547 204.193 C 232.747 197.526 233.957 190.82 235.177 184.073 C 235.888 179.622 236.891 175.223 238.177 170.903 C 238.417 170.153 238.667 169.423 238.937 168.703 C 242.037 166.983 246.347 165.703 248.267 168.483 C 250.267 171.483 247.637 178.483 246.857 181.483 C 244.017 192.353 239.357 202.743 237.927 213.963 Z" fill="url(#linear-gradient-10)"></path>
  <path d="M 309.857 127.263 C 309.961 128.506 309.924 129.758 309.747 130.993 C 309.539 132.261 308.48 133.216 307.197 133.293 C 304.077 133.063 301.827 136.053 299.347 137.973 C 295.38 140.945 290.085 141.451 285.627 139.283 C 284.725 138.958 283.727 139.398 283.357 140.283 C 283.045 141.165 282.976 142.115 283.157 143.033 L 284.307 153.973 C 284.527 156.083 284.547 158.663 282.757 159.803 C 280.967 160.943 278.847 159.953 277.367 158.663 C 275.04 156.425 273.358 153.604 272.497 150.493 C 268.519 137.67 271.602 123.7 280.607 113.743 C 282.269 111.885 284.217 110.306 286.377 109.063 C 288.638 107.889 291.067 107.07 293.577 106.633 C 295.823 106.103 298.146 105.974 300.437 106.253 C 303.514 106.812 306.312 108.394 308.377 110.743 C 309.897 112.403 311.377 117.353 312.977 118.163 C 311.787 121.183 309.907 123.853 309.857 127.263 Z" fill="#f5bcba"></path>
  <path d="M 286.057 84.323 C 284.591 83.98 283.061 84.025 281.617 84.453 C 278.797 85.453 277.217 88.403 276.197 91.213 C 275.177 94.023 274.337 97.093 272.117 99.083 C 270.207 100.803 267.497 101.493 265.777 103.393 C 263.777 105.603 263.587 108.873 263.777 111.843 C 263.777 114.071 264.404 116.254 265.587 118.143 C 266.647 119.583 268.277 120.583 269.107 122.143 C 270.047 123.933 270.367 126.703 272.387 126.823 C 273.229 126.78 274.025 126.424 274.617 125.823 C 276.659 124.058 278.198 121.784 279.077 119.233 C 279.567 117.813 279.887 116.233 280.967 115.233 C 282.047 114.233 284.247 114.173 284.737 115.593 C 284.875 116.496 284.735 117.42 284.337 118.243 C 284.077 119.123 284.187 120.313 285.047 120.613 C 286.667 118.113 287.577 115.173 289.497 112.903 C 294.164 107.434 302.736 107.839 306.867 113.723 C 307.867 115.153 308.547 116.853 309.947 117.873 C 311.266 118.676 312.773 119.118 314.317 119.153 C 317.757 119.493 321.397 119.623 324.497 118.093 C 327.597 116.563 329.887 112.853 328.697 109.603 C 327.757 107.053 325.077 105.603 322.477 104.783 C 319.877 103.963 317.097 103.553 314.807 102.093 C 311.697 100.093 310.037 96.533 308.227 93.303 C 306.417 90.073 303.967 86.753 300.347 85.993 C 298.869 85.763 297.365 85.763 295.887 85.993 C 294.445 86.299 292.969 86.413 291.497 86.333 C 289.697 85.963 287.957 84.743 286.057 84.323 Z" fill="#2e2e3f"></path>
  <path d="M 286.057 166.493 C 288.341 178.061 289.014 189.89 288.057 201.643 C 287.267 211.423 285.387 221.133 285.457 230.943 C 285.604 233.702 285.52 236.468 285.207 239.213 C 284.767 241.933 266.527 240.893 263.867 240.863 C 259.387 240.803 265.067 246.863 261.697 243.943 C 256.407 239.333 254.047 232.143 253.397 225.163 C 252.467 215.213 254.507 205.253 256.727 195.503 C 258.267 188.753 259.907 181.983 262.667 175.633 C 266.087 167.783 271.497 157.793 273.237 149.403 C 273.487 148.173 269.237 143.703 271.067 143.763 C 272.257 143.763 271.697 145.613 271.907 146.533 C 272.282 147.934 273 149.219 273.997 150.273 C 275.392 151.902 277.281 153.029 279.377 153.483 C 280.727 153.733 282.267 153.673 283.247 154.633 C 284.437 155.793 284.247 158.053 284.587 159.633 C 285.077 161.893 285.597 164.183 286.057 166.493 Z" fill="#f2f2f2"></path>
  <path d="M 245.567 136.743 C 240.727 138.963 236.567 142.403 232.637 146.003 C 229.384 148.934 226.312 152.06 223.437 155.363 C 220.897 158.363 218.577 161.473 215.897 164.303 C 212.197 168.193 207.577 171.953 206.847 177.303 C 206.624 180.093 207.112 182.894 208.267 185.443 C 209.219 188.046 210.624 190.46 212.417 192.573 C 214.693 195.09 217.694 196.837 221.007 197.573 C 222.045 197.843 223.129 197.891 224.187 197.713 C 225.677 197.289 227.047 196.522 228.187 195.473 C 230.794 193.5 233.263 191.352 235.577 189.043 C 237.937 186.593 239.937 183.803 242.237 181.293 C 244.237 179.133 246.367 177.183 248.367 175.063 C 250.757 172.523 252.887 169.753 255.017 166.983 C 258.031 163.226 260.794 159.274 263.287 155.153 C 265.37 151.516 267.024 147.65 268.217 143.633 C 268.987 141.013 270.217 137.693 267.557 135.803 C 261.907 131.823 251.197 134.113 245.567 136.743 Z" fill="#68e1fd"></path>
  <path d="M 245.567 136.743 C 240.727 138.963 236.567 142.403 232.637 146.003 C 229.384 148.934 226.312 152.06 223.437 155.363 C 220.897 158.363 218.577 161.473 215.897 164.303 C 212.197 168.193 207.577 171.953 206.847 177.303 C 206.624 180.093 207.112 182.894 208.267 185.443 C 209.219 188.046 210.624 190.46 212.417 192.573 C 214.693 195.09 217.694 196.837 221.007 197.573 C 222.045 197.843 223.129 197.891 224.187 197.713 C 225.677 197.289 227.047 196.522 228.187 195.473 C 230.794 193.5 233.263 191.352 235.577 189.043 C 237.937 186.593 239.937 183.803 242.237 181.293 C 244.237 179.133 246.367 177.183 248.367 175.063 C 250.757 172.523 252.887 169.753 255.017 166.983 C 258.031 163.226 260.794 159.274 263.287 155.153 C 265.37 151.516 267.024 147.65 268.217 143.633 C 268.987 141.013 270.217 137.693 267.557 135.803 C 261.907 131.823 251.197 134.113 245.567 136.743 Z" fill="#68e1fd"></path>
  <path d="M 329.397 182.403 C 327.149 183.823 326.436 186.773 327.787 189.063 C 329.466 191.983 331.718 194.534 334.407 196.563 C 336.007 198.283 339.607 198.563 342.807 196.683 C 346.007 194.803 361.277 186.493 368.907 181.063 C 371.27 179.439 371.786 176.165 370.037 173.893 L 363.647 165.893 C 362.079 163.932 359.286 163.467 357.167 164.813 L 329.397 182.403 Z" fill="#3d3d54"></path>
  <path d="M 229.287 250.743 L 229.057 250.513" fill="none"></path>
  <path d="M 227.907 268.593 C 229.035 272.735 231.037 276.588 233.777 279.893 C 236.777 283.393 240.857 285.893 244.777 288.273 L 261.287 298.323 C 263.708 299.715 266.024 301.283 268.217 303.013 C 273.627 307.473 277.217 313.693 280.707 319.773 L 304.787 361.743 C 306.007 363.893 307.717 366.323 310.187 366.243 C 311.517 366.07 312.768 365.514 313.787 364.643 C 316.877 362.473 320.197 360.003 321.117 356.333 C 321.757 353.773 321.117 351.083 320.347 348.543 C 316.647 336.033 310.847 324.253 305.027 312.543 C 295.78 294.01 286.397 275.513 276.877 257.053 C 274.347 252.153 271.277 244.523 267.097 240.923 C 267.097 240.923 228.257 238.563 227.277 242.413 C 225.094 251.034 225.312 260.087 227.907 268.593 Z" fill="#525263"></path>
  <path d="M 227.907 268.593 C 229.035 272.735 231.037 276.588 233.777 279.893 C 236.777 283.393 240.857 285.893 244.777 288.273 L 261.287 298.323 C 263.708 299.715 266.024 301.283 268.217 303.013 C 273.627 307.473 277.217 313.693 280.707 319.773 L 304.787 361.743 C 306.007 363.893 307.717 366.323 310.187 366.243 C 311.517 366.07 312.768 365.514 313.787 364.643 C 316.877 362.473 320.197 360.003 321.117 356.333 C 321.757 353.773 321.117 351.083 320.347 348.543 C 316.647 336.033 310.847 324.253 305.027 312.543 C 295.78 294.01 286.397 275.513 276.877 257.053 C 274.347 252.153 271.277 244.523 267.097 240.923 C 267.097 240.923 228.257 238.563 227.277 242.413 C 225.094 251.034 225.312 260.087 227.907 268.593 Z" fill="url(#linear-gradient-11)"></path>
  <polygon points="271.587 131.263 266.097 133.433 262.767 152.063 273.837 151.563 271.587 131.263" fill="#68e1fd"></polygon>
  <path d="M 283.207 151.113 C 283.207 151.953 283.207 152.793 283.207 153.633 C 283.207 153.997 283.227 154.361 283.267 154.723 C 283.327 155.09 283.407 155.454 283.507 155.813 L 284.887 161.253 L 285.457 152.413 C 287.087 153.203 288.757 153.923 290.457 154.553 C 290.329 153.228 289.991 151.932 289.457 150.713 C 288.457 148.153 287.537 145.583 286.457 143.073 C 286.205 142.402 285.839 141.78 285.377 141.233 C 284.904 140.683 284.201 140.386 283.477 140.433 C 282.477 140.853 283.107 144.603 283.117 145.433 L 283.207 151.113 Z" fill="#68e1fd"></path>
  <path d="M 364.107 178.023 L 343.787 190.873 C 343.053 191.269 342.143 191.103 341.597 190.473 L 335.137 183.193 C 334.569 182.662 334.647 181.74 335.297 181.313 L 355.657 168.473 C 356.391 168.077 357.301 168.243 357.847 168.873 L 364.307 176.143 C 364.867 176.686 364.769 177.61 364.107 178.023 Z" fill="#68e1fd"></path>
</svg>